<?xml version="1.0" standalone="no"?>
<!DOCTYPE svg PUBLIC "-//W3C//DTD SVG 20010904//EN"
 "http://www.w3.org/TR/2001/REC-SVG-20010904/DTD/svg10.dtd">
<svg version="1.0" xmlns="http://www.w3.org/2000/svg"
 width="500.000000pt" height="500.000000pt" viewBox="0 0 500.000000 500.000000"
 preserveAspectRatio="xMidYMid meet">

<g transform="translate(0.000000,500.000000) scale(0.100000,-0.100000)"
fill="#000000" stroke="none">
<path d="M2590 2914 c0 -3 -43 -203 -95 -443 -52 -241 -95 -441 -95 -444 0
-18 30 -4 35 16 21 88 185 859 185 867 0 5 -7 10 -15 10 -8 0 -15 -3 -15 -6z"/>
<path d="M2122 2597 c-67 -67 -122 -127 -122 -132 0 -6 56 -66 125 -135 99
-99 127 -122 137 -112 10 10 -12 37 -105 130 l-117 117 115 115 c107 107 123
129 99 137 -5 2 -64 -52 -132 -120z"/>
<path d="M2754 2708 c-4 -7 39 -56 110 -126 l117 -115 -117 -118 c-94 -94
-116 -121 -106 -131 10 -10 39 14 142 117 l130 130 -127 127 c-70 71 -131 128
-135 128 -4 0 -10 -5 -14 -12z"/>
</g>
</svg>
