<?xml version="1.0" encoding="UTF-8"?>
<svg id="Capa_2" data-name="Capa 2" xmlns="http://www.w3.org/2000/svg" viewBox="0 0 197.37 160.9">
  <defs>
    <style>
      .cls-1 {
        stroke: #4354a1;
      }

      .cls-1, .cls-2 {
        fill: #82cde4;
        stroke-miterlimit: 10;
        stroke-width: 5px;
      }

      .cls-2 {
        stroke: #42509e;
      }
    </style>
  </defs>
  <g id="Layer_1" data-name="Layer 1">
    <polygon class="cls-2" points="109.1 139.3 99.55 158.4 4.05 158.4 23.15 120.2 32.7 101.1 42.25 82 51.8 62.9 61.35 43.79 70.9 24.69 80.45 5.59 90 24.69 80.45 43.79 70.9 62.9 61.35 82 51.8 101.1 42.25 120.2 32.7 139.3 109.1 139.3"/>
    <polygon class="cls-1" points="193.33 158.4 174.23 158.4 155.13 120.2 145.58 101.1 136.03 82 126.48 101.1 116.93 120.2 107.38 101.1 97.83 82 88.28 101.1 78.73 120.2 59.63 120.2 69.18 101.1 78.73 82 88.28 62.9 97.83 43.79 107.38 62.9 116.93 82 126.48 62.9 136.03 43.79 145.58 62.9 155.13 82 164.68 101.1 174.23 120.2 183.78 139.3 193.33 158.4"/>
  </g>
</svg>